<svg width="2000" height="1017" viewBox="0 0 2000 1017" fill="none" xmlns="http://www.w3.org/2000/svg">
<mask id="mask0_197_438" style="mask-type:alpha" maskUnits="userSpaceOnUse" x="0" y="0" width="2000" height="1017">
<rect width="2000" height="1016.64" fill="#EEDDCC"/>
</mask>
<g mask="url(#mask0_197_438)">
<rect x="-63.3923" y="-18.4285" width="2000" height="1016.64" fill="#413531"/>
<path opacity="0.34" d="M0 1054.48C62.4478 1054.48 62.4478 1080.95 124.913 1080.95C187.361 1080.95 187.361 1054.48 249.826 1054.48C312.274 1054.48 312.274 1080.95 374.74 1080.95C437.187 1080.95 437.187 1054.48 499.635 1054.48C562.083 1054.48 562.083 1080.95 624.531 1080.95C686.979 1080.95 686.979 1054.48 749.444 1054.48C811.892 1054.48 811.892 1080.95 874.357 1080.95C936.823 1080.95 936.823 1054.48 999.27 1054.48C1061.72 1054.48 1061.72 1080.95 1124.18 1080.95C1186.65 1080.95 1186.65 1054.48 1249.1 1054.48C1311.56 1054.48 1311.56 1080.95 1374.01 1080.95C1436.46 1080.95 1436.46 1054.48 1498.92 1054.48C1561.39 1054.48 1561.39 1080.95 1623.84 1080.95C1686.3 1080.95 1686.3 1054.48 1748.75 1054.48C1811.21 1054.48 1811.21 1080.95 1873.68 1080.95C1936.15 1080.95 1936.15 1054.48 1998.61 1054.48M0 999.65C62.4478 999.65 62.4478 1026.12 124.913 1026.12C187.361 1026.12 187.361 999.65 249.826 999.65C312.274 999.65 312.274 1026.12 374.74 1026.12C437.187 1026.12 437.187 999.65 499.635 999.65C562.083 999.65 562.083 1026.12 624.531 1026.12C686.979 1026.12 686.979 999.65 749.444 999.65C811.892 999.65 811.892 1026.12 874.357 1026.12C936.823 1026.12 936.823 999.65 999.27 999.65C1061.72 999.65 1061.72 1026.12 1124.18 1026.12C1186.65 1026.12 1186.65 999.65 1249.1 999.65C1311.56 999.65 1311.56 1026.12 1374.01 1026.12C1436.46 1026.12 1436.46 999.65 1498.92 999.65C1561.39 999.65 1561.39 1026.12 1623.84 1026.12C1686.3 1026.12 1686.3 999.65 1748.75 999.65C1811.21 999.65 1811.21 1026.12 1873.68 1026.12C1936.15 1026.12 1936.15 999.65 1998.61 999.65M0 944.819C62.4478 944.819 62.4478 971.289 124.913 971.289C187.361 971.289 187.361 944.819 249.826 944.819C312.274 944.819 312.274 971.289 374.74 971.289C437.187 971.289 437.187 944.819 499.635 944.819C562.083 944.819 562.083 971.289 624.531 971.289C686.979 971.289 686.979 944.819 749.444 944.819C811.892 944.819 811.892 971.289 874.357 971.289C936.823 971.289 936.823 944.819 999.27 944.819C1061.72 944.819 1061.72 971.289 1124.18 971.289C1186.65 971.289 1186.65 944.819 1249.1 944.819C1311.56 944.819 1311.56 971.289 1374.01 971.289C1436.46 971.289 1436.46 944.819 1498.92 944.819C1561.39 944.819 1561.39 971.289 1623.84 971.289C1686.3 971.289 1686.3 944.819 1748.75 944.819C1811.21 944.819 1811.21 971.289 1873.68 971.289C1936.15 971.289 1936.15 944.819 1998.61 944.819M0 889.987C62.4478 889.987 62.4478 916.458 124.913 916.458C187.361 916.458 187.361 889.987 249.826 889.987C312.274 889.987 312.274 916.458 374.74 916.458C437.187 916.458 437.187 889.987 499.635 889.987C562.083 889.987 562.083 916.458 624.531 916.458C686.979 916.458 686.979 889.987 749.444 889.987C811.892 889.987 811.892 916.458 874.357 916.458C936.823 916.458 936.823 889.987 999.27 889.987C1061.72 889.987 1061.72 916.458 1124.18 916.458C1186.65 916.458 1186.65 889.987 1249.1 889.987C1311.56 889.987 1311.56 916.458 1374.01 916.458C1436.46 916.458 1436.46 889.987 1498.92 889.987C1561.39 889.987 1561.39 916.458 1623.84 916.458C1686.3 916.458 1686.3 889.987 1748.75 889.987C1811.21 889.987 1811.21 916.458 1873.68 916.458C1936.15 916.458 1936.15 889.987 1998.61 889.987M0 835.156C62.4478 835.156 62.4478 861.626 124.913 861.626C187.361 861.626 187.361 835.156 249.826 835.156C312.274 835.156 312.274 861.626 374.74 861.626C437.187 861.626 437.187 835.156 499.635 835.156C562.083 835.156 562.083 861.626 624.531 861.626C686.979 861.626 686.979 835.156 749.444 835.156C811.892 835.156 811.892 861.626 874.357 861.626C936.823 861.626 936.823 835.156 999.27 835.156C1061.72 835.156 1061.72 861.626 1124.18 861.626C1186.65 861.626 1186.65 835.156 1249.1 835.156C1311.56 835.156 1311.56 861.626 1374.01 861.626C1436.46 861.626 1436.46 835.156 1498.92 835.156C1561.39 835.156 1561.39 861.626 1623.84 861.626C1686.3 861.626 1686.3 835.156 1748.75 835.156C1811.21 835.156 1811.21 861.626 1873.68 861.626C1936.15 861.626 1936.15 835.156 1998.61 835.156M0 780.325C62.4478 780.325 62.4478 806.795 124.913 806.795C187.361 806.795 187.361 780.325 249.826 780.325C312.274 780.325 312.274 806.795 374.74 806.795C437.187 806.795 437.187 780.325 499.635 780.325C562.083 780.325 562.083 806.795 624.531 806.795C686.979 806.795 686.979 780.325 749.444 780.325C811.892 780.325 811.892 806.795 874.357 806.795C936.823 806.795 936.823 780.325 999.27 780.325C1061.72 780.325 1061.72 806.795 1124.18 806.795C1186.65 806.795 1186.65 780.325 1249.1 780.325C1311.56 780.325 1311.56 806.795 1374.01 806.795C1436.46 806.795 1436.46 780.325 1498.92 780.325C1561.39 780.325 1561.39 806.795 1623.84 806.795C1686.3 806.795 1686.3 780.325 1748.75 780.325C1811.21 780.325 1811.21 806.795 1873.68 806.795C1936.15 806.795 1936.15 780.325 1998.61 780.325M0 725.494C62.4478 725.494 62.4478 751.964 124.913 751.964C187.361 751.964 187.361 725.494 249.826 725.494C312.274 725.494 312.274 751.964 374.74 751.964C437.187 751.964 437.187 725.494 499.635 725.494C562.083 725.494 562.083 751.964 624.531 751.964C686.979 751.964 686.979 725.494 749.444 725.494C811.892 725.494 811.892 751.964 874.357 751.964C936.823 751.964 936.823 725.494 999.27 725.494C1061.72 725.494 1061.72 751.964 1124.18 751.964C1186.65 751.964 1186.65 725.494 1249.1 725.494C1311.56 725.494 1311.56 751.964 1374.01 751.964C1436.46 751.964 1436.46 725.494 1498.92 725.494C1561.39 725.494 1561.39 751.964 1623.84 751.964C1686.3 751.964 1686.3 725.494 1748.75 725.494C1811.21 725.494 1811.21 751.964 1873.68 751.964C1936.15 751.964 1936.15 725.494 1998.61 725.494M0 670.662C62.4478 670.662 62.4478 697.133 124.913 697.133C187.361 697.133 187.361 670.662 249.826 670.662C312.274 670.662 312.274 697.133 374.74 697.133C437.187 697.133 437.187 670.662 499.635 670.662C562.083 670.662 562.083 697.133 624.531 697.133C686.979 697.133 686.979 670.662 749.444 670.662C811.892 670.662 811.892 697.133 874.357 697.133C936.823 697.133 936.823 670.662 999.27 670.662C1061.72 670.662 1061.72 697.133 1124.18 697.133C1186.65 697.133 1186.65 670.662 1249.1 670.662C1311.56 670.662 1311.56 697.133 1374.01 697.133C1436.46 697.133 1436.46 670.662 1498.92 670.662C1561.39 670.662 1561.39 697.133 1623.84 697.133C1686.3 697.133 1686.3 670.662 1748.75 670.662C1811.21 670.662 1811.21 697.133 1873.68 697.133C1936.15 697.133 1936.15 670.662 1998.61 670.662M0 615.831C62.4478 615.831 62.4478 642.301 124.913 642.301C187.361 642.301 187.361 615.831 249.826 615.831C312.274 615.831 312.274 642.301 374.74 642.301C437.187 642.301 437.187 615.831 499.635 615.831C562.083 615.831 562.083 642.301 624.531 642.301C686.979 642.301 686.979 615.831 749.444 615.831C811.892 615.831 811.892 642.301 874.357 642.301C936.823 642.301 936.823 615.831 999.27 615.831C1061.72 615.831 1061.72 642.301 1124.18 642.301C1186.65 642.301 1186.65 615.831 1249.1 615.831C1311.56 615.831 1311.56 642.301 1374.01 642.301C1436.46 642.301 1436.46 615.831 1498.92 615.831C1561.39 615.831 1561.39 642.301 1623.84 642.301C1686.3 642.301 1686.3 615.831 1748.75 615.831C1811.21 615.831 1811.21 642.301 1873.68 642.301C1936.15 642.301 1936.15 615.831 1998.61 615.831M0 561C62.4478 561 62.4478 587.47 124.913 587.47C187.361 587.47 187.361 561 249.826 561C312.274 561 312.274 587.47 374.74 587.47C437.187 587.47 437.187 561 499.635 561C562.083 561 562.083 587.47 624.531 587.47C686.979 587.47 686.979 561 749.444 561C811.892 561 811.892 587.47 874.357 587.47C936.823 587.47 936.823 561 999.27 561C1061.72 561 1061.72 587.47 1124.18 587.47C1186.65 587.47 1186.65 561 1249.1 561C1311.56 561 1311.56 587.47 1374.01 587.47C1436.46 587.47 1436.46 561 1498.92 561C1561.39 561 1561.39 587.47 1623.84 587.47C1686.3 587.47 1686.3 561 1748.75 561C1811.21 561 1811.21 587.47 1873.68 587.47C1936.15 587.47 1936.15 561 1998.61 561" stroke="url(#paint0_linear_197_438)" stroke-miterlimit="10"/>
</g>
<defs>
<linearGradient id="paint0_linear_197_438" x1="999.306" y1="1095.32" x2="999.306" y2="599.996" gradientUnits="userSpaceOnUse">
<stop stop-color="#B27C64"/>
<stop offset="1" stop-color="#B27C64" stop-opacity="0"/>
</linearGradient>
</defs>
</svg>
