<svg width="1920" height="1080" viewBox="0 0 1920 1080" fill="none" xmlns="http://www.w3.org/2000/svg">
<mask id="mask0_117_1223" style="mask-type:alpha" maskUnits="userSpaceOnUse" x="0" y="0" width="1920" height="1080">
<rect width="1920" height="1080" fill="#FCFBE9"/>
</mask>
<g mask="url(#mask0_117_1223)">
<path d="M2209.33 250.8C2209.33 446.309 2050.84 604.8 1855.33 604.8C1659.82 604.8 1501.33 446.309 1501.33 250.8L1501.33 -57.6L2209.33 -57.6L2209.33 250.8Z" fill="url(#paint0_linear_117_1223)"/>
<rect x="0.5" y="0.5" width="1919" height="1079" fill="#EEDDCC" stroke="#EEDDCC"/>
<rect opacity="0.34" x="1353.33" width="566.667" height="634.8" fill="url(#paint1_linear_117_1223)"/>
<rect opacity="0.34" x="-68" y="781.2" width="350.667" height="298.8" fill="url(#paint2_linear_117_1223)"/>
<path opacity="0.6" d="M1.3335 1051.99C61.2834 1051.99 61.2834 1075.2 121.25 1075.2C181.2 1075.2 181.2 1051.99 241.167 1051.99C301.117 1051.99 301.117 1075.2 361.083 1075.2C421.033 1075.2 421.033 1051.99 480.983 1051.99C540.933 1051.99 540.933 1075.2 600.883 1075.2C660.833 1075.2 660.833 1051.99 720.8 1051.99C780.75 1051.99 780.75 1075.2 840.716 1075.2C900.683 1075.2 900.683 1051.99 960.633 1051.99C1020.58 1051.99 1020.58 1075.2 1080.55 1075.2C1140.52 1075.2 1140.52 1051.99 1200.47 1051.99C1260.43 1051.99 1260.43 1075.2 1320.38 1075.2C1380.33 1075.2 1380.33 1051.99 1440.3 1051.99C1500.27 1051.99 1500.27 1075.2 1560.22 1075.2C1620.18 1075.2 1620.18 1051.99 1680.13 1051.99C1740.1 1051.99 1740.1 1075.2 1800.07 1075.2C1860.03 1075.2 1860.03 1051.99 1920 1051.99M1.3335 1003.9C61.2834 1003.9 61.2834 1027.11 121.25 1027.11C181.2 1027.11 181.2 1003.9 241.167 1003.9C301.117 1003.9 301.117 1027.11 361.083 1027.11C421.033 1027.11 421.033 1003.9 480.983 1003.9C540.933 1003.9 540.933 1027.11 600.883 1027.11C660.833 1027.11 660.833 1003.9 720.8 1003.9C780.75 1003.9 780.75 1027.11 840.716 1027.11C900.683 1027.11 900.683 1003.9 960.633 1003.9C1020.58 1003.9 1020.58 1027.11 1080.55 1027.11C1140.52 1027.11 1140.52 1003.9 1200.47 1003.9C1260.43 1003.9 1260.43 1027.11 1320.38 1027.11C1380.33 1027.11 1380.33 1003.9 1440.3 1003.9C1500.27 1003.9 1500.27 1027.11 1560.22 1027.11C1620.18 1027.11 1620.18 1003.9 1680.13 1003.9C1740.1 1003.9 1740.1 1027.11 1800.07 1027.11C1860.03 1027.11 1860.03 1003.9 1920 1003.9M1.3335 955.811C61.2834 955.811 61.2834 979.025 121.25 979.025C181.2 979.025 181.2 955.811 241.167 955.811C301.117 955.811 301.117 979.025 361.083 979.025C421.033 979.025 421.033 955.811 480.983 955.811C540.933 955.811 540.933 979.025 600.883 979.025C660.833 979.025 660.833 955.811 720.8 955.811C780.75 955.811 780.75 979.025 840.716 979.025C900.683 979.025 900.683 955.811 960.633 955.811C1020.58 955.811 1020.58 979.025 1080.55 979.025C1140.52 979.025 1140.52 955.811 1200.47 955.811C1260.43 955.811 1260.43 979.025 1320.38 979.025C1380.33 979.025 1380.33 955.811 1440.3 955.811C1500.27 955.811 1500.27 979.025 1560.22 979.025C1620.18 979.025 1620.18 955.811 1680.13 955.811C1740.1 955.811 1740.1 979.025 1800.07 979.025C1860.03 979.025 1860.03 955.811 1920 955.811M1.3335 907.724C61.2834 907.724 61.2834 930.938 121.25 930.938C181.2 930.938 181.2 907.724 241.167 907.724C301.117 907.724 301.117 930.938 361.083 930.938C421.033 930.938 421.033 907.724 480.983 907.724C540.933 907.724 540.933 930.938 600.883 930.938C660.833 930.938 660.833 907.724 720.8 907.724C780.75 907.724 780.75 930.938 840.716 930.938C900.683 930.938 900.683 907.724 960.633 907.724C1020.58 907.724 1020.58 930.938 1080.55 930.938C1140.52 930.938 1140.52 907.724 1200.47 907.724C1260.43 907.724 1260.43 930.938 1320.38 930.938C1380.33 930.938 1380.33 907.724 1440.3 907.724C1500.27 907.724 1500.27 930.938 1560.22 930.938C1620.18 930.938 1620.18 907.724 1680.13 907.724C1740.1 907.724 1740.1 930.938 1800.07 930.938C1860.03 930.938 1860.03 907.724 1920 907.724M1.3335 859.636C61.2834 859.636 61.2834 882.851 121.25 882.851C181.2 882.851 181.2 859.636 241.167 859.636C301.117 859.636 301.117 882.851 361.083 882.851C421.033 882.851 421.033 859.636 480.983 859.636C540.933 859.636 540.933 882.851 600.883 882.851C660.833 882.851 660.833 859.636 720.8 859.636C780.75 859.636 780.75 882.851 840.716 882.851C900.683 882.851 900.683 859.636 960.633 859.636C1020.58 859.636 1020.58 882.851 1080.55 882.851C1140.52 882.851 1140.52 859.636 1200.47 859.636C1260.43 859.636 1260.43 882.851 1320.38 882.851C1380.33 882.851 1380.33 859.636 1440.3 859.636C1500.27 859.636 1500.27 882.851 1560.22 882.851C1620.18 882.851 1620.18 859.636 1680.13 859.636C1740.1 859.636 1740.1 882.851 1800.07 882.851C1860.03 882.851 1860.03 859.636 1920 859.636M1.3335 811.549C61.2834 811.549 61.2834 834.764 121.25 834.764C181.2 834.764 181.2 811.549 241.167 811.549C301.117 811.549 301.117 834.764 361.083 834.764C421.033 834.764 421.033 811.549 480.983 811.549C540.933 811.549 540.933 834.764 600.883 834.764C660.833 834.764 660.833 811.549 720.8 811.549C780.75 811.549 780.75 834.764 840.716 834.764C900.683 834.764 900.683 811.549 960.633 811.549C1020.58 811.549 1020.58 834.764 1080.55 834.764C1140.52 834.764 1140.52 811.549 1200.47 811.549C1260.43 811.549 1260.43 834.764 1320.38 834.764C1380.33 834.764 1380.33 811.549 1440.3 811.549C1500.27 811.549 1500.27 834.764 1560.22 834.764C1620.18 834.764 1620.18 811.549 1680.13 811.549C1740.1 811.549 1740.1 834.764 1800.07 834.764C1860.03 834.764 1860.03 811.549 1920 811.549M1.3335 763.462C61.2834 763.462 61.2834 786.676 121.25 786.676C181.2 786.676 181.2 763.462 241.167 763.462C301.117 763.462 301.117 786.676 361.083 786.676C421.033 786.676 421.033 763.462 480.983 763.462C540.933 763.462 540.933 786.676 600.883 786.676C660.833 786.676 660.833 763.462 720.8 763.462C780.75 763.462 780.75 786.676 840.716 786.676C900.683 786.676 900.683 763.462 960.633 763.462C1020.58 763.462 1020.58 786.676 1080.55 786.676C1140.52 786.676 1140.52 763.462 1200.47 763.462C1260.43 763.462 1260.43 786.676 1320.38 786.676C1380.33 786.676 1380.33 763.462 1440.3 763.462C1500.27 763.462 1500.27 786.676 1560.22 786.676C1620.18 786.676 1620.18 763.462 1680.13 763.462C1740.1 763.462 1740.1 786.676 1800.07 786.676C1860.03 786.676 1860.03 763.462 1920 763.462M1.3335 715.374C61.2834 715.374 61.2834 738.589 121.25 738.589C181.2 738.589 181.2 715.374 241.167 715.374C301.117 715.374 301.117 738.589 361.083 738.589C421.033 738.589 421.033 715.374 480.983 715.374C540.933 715.374 540.933 738.589 600.883 738.589C660.833 738.589 660.833 715.374 720.8 715.374C780.75 715.374 780.75 738.589 840.716 738.589C900.683 738.589 900.683 715.374 960.633 715.374C1020.58 715.374 1020.58 738.589 1080.55 738.589C1140.52 738.589 1140.52 715.374 1200.47 715.374C1260.43 715.374 1260.43 738.589 1320.38 738.589C1380.33 738.589 1380.33 715.374 1440.3 715.374C1500.27 715.374 1500.27 738.589 1560.22 738.589C1620.18 738.589 1620.18 715.374 1680.13 715.374C1740.1 715.374 1740.1 738.589 1800.07 738.589C1860.03 738.589 1860.03 715.374 1920 715.374M1.3335 667.287C61.2834 667.287 61.2834 690.502 121.25 690.502C181.2 690.502 181.2 667.287 241.167 667.287C301.117 667.287 301.117 690.502 361.083 690.502C421.033 690.502 421.033 667.287 480.983 667.287C540.933 667.287 540.933 690.502 600.883 690.502C660.833 690.502 660.833 667.287 720.8 667.287C780.75 667.287 780.75 690.502 840.716 690.502C900.683 690.502 900.683 667.287 960.633 667.287C1020.58 667.287 1020.58 690.502 1080.55 690.502C1140.52 690.502 1140.52 667.287 1200.47 667.287C1260.43 667.287 1260.43 690.502 1320.38 690.502C1380.33 690.502 1380.33 667.287 1440.3 667.287C1500.27 667.287 1500.27 690.502 1560.22 690.502C1620.18 690.502 1620.18 667.287 1680.13 667.287C1740.1 667.287 1740.1 690.502 1800.07 690.502C1860.03 690.502 1860.03 667.287 1920 667.287M1.3335 619.2C61.2834 619.2 61.2834 642.414 121.25 642.414C181.2 642.414 181.2 619.2 241.167 619.2C301.117 619.2 301.117 642.414 361.083 642.414C421.033 642.414 421.033 619.2 480.983 619.2C540.933 619.2 540.933 642.414 600.883 642.414C660.833 642.414 660.833 619.2 720.8 619.2C780.75 619.2 780.75 642.414 840.716 642.414C900.683 642.414 900.683 619.2 960.633 619.2C1020.58 619.2 1020.58 642.414 1080.55 642.414C1140.52 642.414 1140.52 619.2 1200.47 619.2C1260.43 619.2 1260.43 642.414 1320.38 642.414C1380.33 642.414 1380.33 619.2 1440.3 619.2C1500.27 619.2 1500.27 642.414 1560.22 642.414C1620.18 642.414 1620.18 619.2 1680.13 619.2C1740.1 619.2 1740.1 642.414 1800.07 642.414C1860.03 642.414 1860.03 619.2 1920 619.2" stroke="url(#paint3_linear_117_1223)" stroke-miterlimit="10"/>
<path d="M-24.0569 277.2L-28 280.758M-24.0569 301.511L-28 305.068M-24.0569 325.821L-28 329.379M-24.0569 350.132L-28 353.689M-24.0569 374.442L-28 378M2.88784 277.2L-1.05529 280.758M2.88784 301.511L-1.05529 305.068M2.88784 325.821L-1.05529 329.379M2.88784 350.132L-1.05529 353.689M2.88784 374.442L-1.05529 378M29.8325 277.2L25.8894 280.758M29.8325 301.511L25.8894 305.068M29.8325 325.821L25.8894 329.379M29.8325 350.132L25.8894 353.689M29.8325 374.442L25.8894 378M56.7772 277.2L52.8341 280.758M56.7772 301.511L52.8341 305.068M56.7772 325.821L52.8341 329.379M56.7772 350.132L52.8341 353.689M56.7772 374.442L52.8341 378M83.722 277.2L79.7788 280.758M83.722 301.511L79.7788 305.068M83.722 325.821L79.7788 329.379M83.722 350.132L79.7788 353.689M83.722 374.442L79.7788 378M110.667 277.2L106.724 280.758M110.667 301.511L106.724 305.068M110.667 325.821L106.724 329.379M110.667 350.132L106.724 353.689M110.667 374.442L106.724 378" stroke="#34251F" stroke-width="2"/>
</g>
<defs>
<linearGradient id="paint0_linear_117_1223" x1="1855.33" y1="604.8" x2="1855.33" y2="-57.6" gradientUnits="userSpaceOnUse">
<stop stop-color="#D7B798"/>
<stop offset="1" stop-color="#D7B798" stop-opacity="0"/>
</linearGradient>
<linearGradient id="paint1_linear_117_1223" x1="1548.36" y1="769.2" x2="1548.36" y2="-100.8" gradientUnits="userSpaceOnUse">
<stop stop-color="#D3A17E"/>
<stop offset="1" stop-color="#D3A17E" stop-opacity="0"/>
</linearGradient>
<linearGradient id="paint2_linear_117_1223" x1="52.684" y1="1143.26" x2="52.684" y2="733.753" gradientUnits="userSpaceOnUse">
<stop stop-color="#D3A17E"/>
<stop offset="1" stop-color="#D3A17E" stop-opacity="0"/>
</linearGradient>
<linearGradient id="paint3_linear_117_1223" x1="960.667" y1="1087.8" x2="960.667" y2="653.4" gradientUnits="userSpaceOnUse">
<stop stop-color="#B27C64"/>
<stop offset="1" stop-color="#B27C64" stop-opacity="0"/>
</linearGradient>
</defs>
</svg>
