<svg width="109" height="17" viewBox="0 0 109 17" fill="none" xmlns="http://www.w3.org/2000/svg">
<path d="M9.16889 0.648743L11.8532 5.92717L17.856 6.77881L13.5124 10.8852L14.5375 16.6864L9.16889 13.946L3.80028 16.6864L4.82535 10.8852L0.481812 6.77881L6.48458 5.92717L9.16889 0.648743Z" fill="#FFB168"/>
<path d="M31.889 0.648743L34.5733 5.92717L40.5761 6.77881L36.2325 10.8852L37.2576 16.6864L31.889 13.946L26.5204 16.6864L27.5454 10.8852L23.2019 6.77881L29.2047 5.92717L31.889 0.648743Z" fill="#FFB168"/>
<path d="M54.609 0.648743L57.2933 5.92717L63.296 6.77881L58.9525 10.8852L59.9776 16.6864L54.609 13.946L49.2403 16.6864L50.2654 10.8852L45.9219 6.77881L51.9246 5.92717L54.609 0.648743Z" fill="#FFB168"/>
<path d="M77.329 0.648743L80.0134 5.92717L86.0161 6.77881L81.6726 10.8852L82.6977 16.6864L77.329 13.946L71.9604 16.6864L72.9855 10.8852L68.642 6.77881L74.6447 5.92717L77.329 0.648743Z" fill="#FFB168"/>
<path d="M100.049 0.648743L102.733 5.92717L108.736 6.77881L104.393 10.8852L105.418 16.6864L100.049 13.946L94.6805 16.6864L95.7056 10.8852L91.3621 6.77881L97.3648 5.92717L100.049 0.648743Z" fill="#FFB168"/>
</svg>
