<svg width="67" height="18" viewBox="0 0 67 18" fill="none" xmlns="http://www.w3.org/2000/svg">
<path d="M9.25249 0L12.1115 5.62199L18.505 6.52905L13.8787 10.9027L14.9705 17.0815L9.25249 14.1627L3.53445 17.0815L4.62624 10.9027L0 6.52905L6.39347 5.62199L9.25249 0Z" fill="#FFB168"/>
<path d="M33.4513 0L36.3104 5.62199L42.7038 6.52905L38.0776 10.9027L39.1694 17.0815L33.4513 14.1627L27.7333 17.0815L28.8251 10.9027L24.1989 6.52905L30.5923 5.62199L33.4513 0Z" fill="#FFB168"/>
<path d="M57.6501 0L60.5091 5.62199L66.9026 6.52905L62.2763 10.9027L63.3681 17.0815L57.6501 14.1627L51.932 17.0815L53.0238 10.9027L48.3976 6.52905L54.7911 5.62199L57.6501 0Z" fill="#FFB168"/>
</svg>
