<svg width="20" height="20" viewBox="0 0 20 20" fill="none" xmlns="http://www.w3.org/2000/svg">
<g clip-path="url(#clip0_291_2884)">
<path d="M12.125 10.9848C12.75 10.9848 13.3 10.6432 13.5833 10.1265L16.5667 4.71818C16.875 4.16818 16.475 3.48484 15.8417 3.48484H3.50833L2.725 1.81818H0V3.48484H1.66667L4.66667 9.80984L3.54167 11.8432C2.93333 12.9598 3.73333 14.3182 5 14.3182H15V12.6515H5L5.91667 10.9848H12.125ZM4.3 5.15151H14.425L12.125 9.31818H6.275L4.3 5.15151ZM5 15.1515C4.08333 15.1515 3.34167 15.9015 3.34167 16.8182C3.34167 17.7348 4.08333 18.4848 5 18.4848C5.91667 18.4848 6.66667 17.7348 6.66667 16.8182C6.66667 15.9015 5.91667 15.1515 5 15.1515ZM13.3333 15.1515C12.4167 15.1515 11.675 15.9015 11.675 16.8182C11.675 17.7348 12.4167 18.4848 13.3333 18.4848C14.25 18.4848 15 17.7348 15 16.8182C15 15.9015 14.25 15.1515 13.3333 15.1515Z" fill="white"/>
</g>
<defs>
<clipPath id="clip0_291_2884">
<rect width="20" height="20" fill="white"/>
</clipPath>
</defs>
</svg>
