<svg width="22" height="22" viewBox="0 0 22 22" fill="none" xmlns="http://www.w3.org/2000/svg">
<g clip-path="url(#clip0_291_2894)">
<path d="M13.3375 12.0833C14.025 12.0833 14.63 11.7075 14.9417 11.1392L18.2233 5.19C18.5625 4.585 18.1225 3.83333 17.4258 3.83333H3.85917L2.9975 2H0V3.83333H1.83333L5.13333 10.7908L3.89583 13.0275C3.22667 14.2558 4.10667 15.75 5.5 15.75H16.5V13.9167H5.5L6.50833 12.0833H13.3375ZM4.73 5.66667H15.8675L13.3375 10.25H6.9025L4.73 5.66667ZM5.5 16.6667C4.49167 16.6667 3.67583 17.4917 3.67583 18.5C3.67583 19.5083 4.49167 20.3333 5.5 20.3333C6.50833 20.3333 7.33333 19.5083 7.33333 18.5C7.33333 17.4917 6.50833 16.6667 5.5 16.6667ZM14.6667 16.6667C13.6583 16.6667 12.8425 17.4917 12.8425 18.5C12.8425 19.5083 13.6583 20.3333 14.6667 20.3333C15.675 20.3333 16.5 19.5083 16.5 18.5C16.5 17.4917 15.675 16.6667 14.6667 16.6667Z" fill="white"/>
</g>
<defs>
<clipPath id="clip0_291_2894">
<rect width="22" height="22" fill="white"/>
</clipPath>
</defs>
</svg>
