<svg width="25" height="25" viewBox="0 0 25 25" fill="none" xmlns="http://www.w3.org/2000/svg">
<mask id="mask0_205_826" style="mask-type:alpha" maskUnits="userSpaceOnUse" x="0" y="0" width="25" height="25">
<rect x="0.5" y="0.5" width="24" height="24" fill="#34251F"/>
</mask>
<g mask="url(#mask0_205_826)">
<path d="M21.525 11.55V19.5C21.525 20.05 21.3292 20.5208 20.9375 20.9125C20.5459 21.3042 20.075 21.5 19.525 21.5H5.52503C4.97503 21.5 4.50419 21.3042 4.11253 20.9125C3.72086 20.5208 3.52503 20.05 3.52503 19.5V11.55C3.14169 11.2 2.84586 10.75 2.63753 10.2C2.42919 9.65 2.42503 9.05 2.62503 8.4L3.67503 5C3.80836 4.56667 4.04586 4.20833 4.38753 3.925C4.72919 3.64167 5.12503 3.5 5.57503 3.5H19.475C19.925 3.5 20.3167 3.6375 20.65 3.9125C20.9834 4.1875 21.225 4.55 21.375 5L22.425 8.4C22.625 9.05 22.6209 9.64167 22.4125 10.175C22.2042 10.7083 21.9084 11.1667 21.525 11.55ZM14.725 10.5C15.175 10.5 15.5167 10.3458 15.75 10.0375C15.9834 9.72917 16.075 9.38333 16.025 9L15.475 5.5H13.525V9.2C13.525 9.55 13.6417 9.85417 13.875 10.1125C14.1084 10.3708 14.3917 10.5 14.725 10.5ZM10.225 10.5C10.6084 10.5 10.9209 10.3708 11.1625 10.1125C11.4042 9.85417 11.525 9.55 11.525 9.2V5.5H9.57503L9.02503 9C8.95836 9.4 9.04586 9.75 9.28753 10.05C9.52919 10.35 9.84169 10.5 10.225 10.5ZM5.77503 10.5C6.07503 10.5 6.33753 10.3917 6.56253 10.175C6.78753 9.95833 6.92503 9.68333 6.97503 9.35L7.52503 5.5H5.57503L4.57503 8.85C4.47503 9.18333 4.52919 9.54167 4.73753 9.925C4.94586 10.3083 5.29169 10.5 5.77503 10.5ZM19.275 10.5C19.7584 10.5 20.1084 10.3083 20.325 9.925C20.5417 9.54167 20.5917 9.18333 20.475 8.85L19.425 5.5H17.525L18.075 9.35C18.125 9.68333 18.2625 9.95833 18.4875 10.175C18.7125 10.3917 18.975 10.5 19.275 10.5ZM5.52503 19.5H19.525V12.45C19.4417 12.4833 19.3875 12.5 19.3625 12.5H19.275C18.825 12.5 18.4292 12.425 18.0875 12.275C17.7459 12.125 17.4084 11.8833 17.075 11.55C16.775 11.85 16.4334 12.0833 16.05 12.25C15.6667 12.4167 15.2584 12.5 14.825 12.5C14.375 12.5 13.9542 12.4167 13.5625 12.25C13.1709 12.0833 12.825 11.85 12.525 11.55C12.2417 11.85 11.9125 12.0833 11.5375 12.25C11.1625 12.4167 10.7584 12.5 10.325 12.5C9.84169 12.5 9.40419 12.4167 9.01253 12.25C8.62086 12.0833 8.27503 11.85 7.97503 11.55C7.62503 11.9 7.27919 12.1458 6.93753 12.2875C6.59586 12.4292 6.20836 12.5 5.77503 12.5H5.66253C5.62086 12.5 5.57503 12.4833 5.52503 12.45V19.5Z" fill="#34251F"/>
</g>
</svg>
