<svg width="175" height="141" viewBox="0 0 175 141" fill="none" xmlns="http://www.w3.org/2000/svg">
<path d="M5.94801 0.818115L1.02893 5.73002M5.94801 34.3828L1.02893 39.2947M5.94801 67.9474L1.02893 72.8593M5.94801 101.512L1.02893 106.424M5.94801 135.077L1.02893 139.989M39.5617 0.818115L34.6426 5.73002M39.5617 34.3828L34.6426 39.2947M39.5617 67.9474L34.6426 72.8593M39.5617 101.512L34.6426 106.424M39.5617 135.077L34.6426 139.989M73.1754 0.818115L68.2564 5.73002M73.1754 34.3828L68.2564 39.2947M73.1754 67.9474L68.2564 72.8593M73.1754 101.512L68.2564 106.424M73.1754 135.077L68.2564 139.989M106.789 0.818115L101.87 5.73002M106.789 34.3828L101.87 39.2947M106.789 67.9474L101.87 72.8593M106.789 101.512L101.87 106.424M106.789 135.077L101.87 139.989M140.403 0.818115L135.484 5.73002M140.403 34.3828L135.484 39.2947M140.403 67.9474L135.484 72.8593M140.403 101.512L135.484 106.424M140.403 135.077L135.484 139.989M174.017 0.818115L169.098 5.73002M174.017 34.3828L169.098 39.2947M174.017 67.9474L169.098 72.8593M174.017 101.512L169.098 106.424M174.017 135.077L169.098 139.989" stroke="#34251F" stroke-width="2"/>
</svg>
