<svg width="173" height="139" viewBox="0 0 173 139" fill="none" xmlns="http://www.w3.org/2000/svg">
<path d="M5.87692 0.84375L1.03125 5.68235M5.87692 33.9075L1.03125 38.7461M5.87692 66.9713L1.03125 71.8099M5.87692 100.035L1.03125 104.874M5.87692 133.099L1.03125 137.937M38.989 0.84375L34.1434 5.68235M38.989 33.9075L34.1434 38.7461M38.989 66.9713L34.1434 71.8099M38.989 100.035L34.1434 104.874M38.989 133.099L34.1434 137.937M72.1012 0.84375L67.2555 5.68235M72.1012 33.9075L67.2555 38.7461M72.1012 66.9713L67.2555 71.8099M72.1012 100.035L67.2555 104.874M72.1012 133.099L67.2555 137.937M105.213 0.84375L100.368 5.68235M105.213 33.9075L100.368 38.7461M105.213 66.9713L100.368 71.8099M105.213 100.035L100.368 104.874M105.213 133.099L100.368 137.937M138.325 0.84375L133.48 5.68235M138.325 33.9075L133.48 38.7461M138.325 66.9713L133.48 71.8099M138.325 100.035L133.48 104.874M138.325 133.099L133.48 137.937M171.437 0.84375L166.592 5.68235M171.437 33.9075L166.592 38.7461M171.437 66.9713L166.592 71.8099M171.437 100.035L166.592 104.874M171.437 133.099L166.592 137.937" stroke="#34251F" stroke-width="2"/>
</svg>
