<svg width="39" height="43" viewBox="0 0 39 43" fill="none" xmlns="http://www.w3.org/2000/svg">
<path d="M2 9.61103L7.83333 1.83325H31.1667L37 9.61103M2 9.61103V36.8332C2 37.8646 2.40972 38.8538 3.13903 39.5831C3.86834 40.3124 4.85749 40.7221 5.88889 40.7221H33.1111C34.1425 40.7221 35.1317 40.3124 35.861 39.5831C36.5903 38.8538 37 37.8646 37 36.8332V9.61103M2 9.61103H37M27.278 17.3883C27.278 19.4511 26.4585 21.4294 24.9999 22.888C23.5413 24.3466 21.563 25.1661 19.5002 25.1661C17.4374 25.1661 15.4591 24.3466 14.0005 22.888C12.5419 21.4294 11.7224 19.4511 11.7224 17.3883" stroke="#34251F" stroke-width="3" stroke-linecap="round" stroke-linejoin="round"/>
</svg>
