<svg width="28" height="28" viewBox="0 0 28 28" fill="none" xmlns="http://www.w3.org/2000/svg">
<g clip-path="url(#clip0_342_3089)">
<path fill-rule="evenodd" clip-rule="evenodd" d="M15.1999 2.00002C15.1999 0.895454 14.7045 0.400024 13.5999 0.400024C12.4953 0.400024 11.9999 0.895454 11.9999 2.00002V12.4H1.9999C0.895332 12.4 0.399902 12.8955 0.399902 14C0.399902 15.1046 0.895332 15.2 1.9999 15.2H11.9999V26C11.9999 27.1046 12.4953 27.6 13.5999 27.6C14.7045 27.6 15.1999 27.1046 15.1999 26V15.2H25.9999C27.1045 15.2 27.1999 14.7046 27.1999 13.6C27.1999 12.4955 27.1045 12.4 25.9999 12.4H15.1999V2.00002Z" fill="#34251F"/>
</g>
<defs>
<clipPath id="clip0_342_3089">
<rect width="28" height="28" fill="white"/>
</clipPath>
</defs>
</svg>
