<svg width="39" height="48" viewBox="0 0 39 48" fill="none" xmlns="http://www.w3.org/2000/svg">
<path d="M2 14.611L7.83333 6.83325H31.1667L37 14.611M2 14.611V41.8332C2 42.8646 2.40972 43.8538 3.13903 44.5831C3.86834 45.3124 4.85749 45.7221 5.88889 45.7221H33.1111C34.1425 45.7221 35.1317 45.3124 35.861 44.5831C36.5903 43.8538 37 42.8646 37 41.8332V14.611M2 14.611H37M27.278 22.3883C27.278 24.4511 26.4585 26.4294 24.9999 27.888C23.5413 29.3466 21.563 30.1661 19.5002 30.1661C17.4374 30.1661 15.4591 29.3466 14.0005 27.888C12.5419 26.4294 11.7224 24.4511 11.7224 22.3883" stroke="#34251F" stroke-width="3" stroke-linecap="round" stroke-linejoin="round"/>
<circle cx="29.75" cy="8" r="8" fill="#C20A0A"/>
<path d="M28.2553 10.0782H29.4342V7.0535C29.4342 6.90535 29.4384 6.75034 29.4468 6.58848L28.7521 7.15226C28.7072 7.18793 28.6623 7.21399 28.6174 7.23045C28.5725 7.24417 28.5289 7.25103 28.4868 7.25103C28.4139 7.25103 28.3479 7.23594 28.2889 7.20576C28.2328 7.17284 28.1907 7.13855 28.1626 7.10288L27.75 6.5679L29.6616 5H30.7395V10.0782H31.75V11H28.2553V10.0782Z" fill="white"/>
</svg>
