<svg width="25" height="25" viewBox="0 0 25 25" fill="none" xmlns="http://www.w3.org/2000/svg">
<mask id="mask0_342_3032" style="mask-type:alpha" maskUnits="userSpaceOnUse" x="0" y="0" width="25" height="25">
<rect x="0.5" y="0.5" width="24" height="24" fill="#34251F"/>
</mask>
<g mask="url(#mask0_342_3032)">
<path d="M21.525 11.55V19.5C21.525 20.05 21.3291 20.5208 20.9375 20.9125C20.5458 21.3042 20.075 21.5 19.525 21.5H5.52497C4.97497 21.5 4.50413 21.3042 4.11247 20.9125C3.7208 20.5208 3.52497 20.05 3.52497 19.5V11.55C3.14163 11.2 2.8458 10.75 2.63747 10.2C2.42913 9.65 2.42497 9.05 2.62497 8.4L3.67497 5C3.8083 4.56667 4.0458 4.20833 4.38747 3.925C4.72913 3.64167 5.12497 3.5 5.57497 3.5H19.475C19.925 3.5 20.3166 3.6375 20.65 3.9125C20.9833 4.1875 21.225 4.55 21.375 5L22.425 8.4C22.625 9.05 22.6208 9.64167 22.4125 10.175C22.2041 10.7083 21.9083 11.1667 21.525 11.55ZM14.725 10.5C15.175 10.5 15.5166 10.3458 15.75 10.0375C15.9833 9.72917 16.075 9.38333 16.025 9L15.475 5.5H13.525V9.2C13.525 9.55 13.6416 9.85417 13.875 10.1125C14.1083 10.3708 14.3916 10.5 14.725 10.5ZM10.225 10.5C10.6083 10.5 10.9208 10.3708 11.1625 10.1125C11.4041 9.85417 11.525 9.55 11.525 9.2V5.5H9.57497L9.02497 9C8.9583 9.4 9.0458 9.75 9.28747 10.05C9.52913 10.35 9.84163 10.5 10.225 10.5ZM5.77497 10.5C6.07497 10.5 6.33747 10.3917 6.56247 10.175C6.78747 9.95833 6.92497 9.68333 6.97497 9.35L7.52497 5.5H5.57497L4.57497 8.85C4.47497 9.18333 4.52913 9.54167 4.73747 9.925C4.9458 10.3083 5.29163 10.5 5.77497 10.5ZM19.275 10.5C19.7583 10.5 20.1083 10.3083 20.325 9.925C20.5416 9.54167 20.5916 9.18333 20.475 8.85L19.425 5.5H17.525L18.075 9.35C18.125 9.68333 18.2625 9.95833 18.4875 10.175C18.7125 10.3917 18.975 10.5 19.275 10.5ZM5.52497 19.5H19.525V12.45C19.4416 12.4833 19.3875 12.5 19.3625 12.5H19.275C18.825 12.5 18.4291 12.425 18.0875 12.275C17.7458 12.125 17.4083 11.8833 17.075 11.55C16.775 11.85 16.4333 12.0833 16.05 12.25C15.6666 12.4167 15.2583 12.5 14.825 12.5C14.375 12.5 13.9541 12.4167 13.5625 12.25C13.1708 12.0833 12.825 11.85 12.525 11.55C12.2416 11.85 11.9125 12.0833 11.5375 12.25C11.1625 12.4167 10.7583 12.5 10.325 12.5C9.84163 12.5 9.40413 12.4167 9.01247 12.25C8.6208 12.0833 8.27497 11.85 7.97497 11.55C7.62497 11.9 7.27913 12.1458 6.93747 12.2875C6.5958 12.4292 6.2083 12.5 5.77497 12.5H5.66247C5.6208 12.5 5.57497 12.4833 5.52497 12.45V19.5Z" fill="#34251F"/>
</g>
</svg>
