<svg width="34" height="34" viewBox="0 0 34 34" fill="none" xmlns="http://www.w3.org/2000/svg">
<path d="M17 27.489L9.01994 33.5441C8.62453 33.8656 8.19317 34.0171 7.72587 33.9985C7.25857 33.9813 6.84519 33.8477 6.48573 33.5977C6.12626 33.3476 5.84804 33.0082 5.65106 32.5796C5.45263 32.1509 5.44329 31.6865 5.62302 31.1863L8.69642 21.2732L0.878115 15.7539C0.44676 15.4681 0.177163 15.093 0.0693248 14.6286C-0.0385139 14.1642 -0.0205406 13.7356 0.123244 13.3426C0.267029 12.9497 0.518653 12.601 0.878115 12.2966C1.23758 11.9937 1.66893 11.8422 2.17218 11.8422H11.8237L14.9511 1.55396C15.1308 1.05383 15.4097 0.669453 15.7879 0.400815C16.1646 0.133605 16.5686 0 17 0C17.4314 0 17.8354 0.133605 18.2121 0.400815C18.5903 0.669453 18.8692 1.05383 19.0489 1.55396L22.1763 11.8422H31.8278C32.3311 11.8422 32.7624 11.9937 33.1219 12.2966C33.4813 12.601 33.733 12.9497 33.8768 13.3426C34.0205 13.7356 34.0385 14.1642 33.9307 14.6286C33.8228 15.093 33.5532 15.4681 33.1219 15.7539L25.3036 21.2732L28.377 31.1863C28.5567 31.6865 28.5481 32.1509 28.3511 32.5796C28.1527 33.0082 27.8737 33.3476 27.5143 33.5977C27.1548 33.8477 26.7414 33.9813 26.2741 33.9985C25.8068 34.0171 25.3755 33.8656 24.9801 33.5441L17 27.489Z" fill="#34251F"/>
</svg>
