<svg width="34" height="35" viewBox="0 0 34 35" fill="none" xmlns="http://www.w3.org/2000/svg">
<path d="M22.1608 26.1833L20.2253 19.624L25.0641 16.1831H19.0425L16.9994 9.51631V22.2047L22.1608 26.1833ZM9.04231 33.6565C8.21792 34.3017 7.37561 34.3196 6.51538 33.7103C5.65515 33.101 5.3684 32.2945 5.65515 31.2909L8.71972 21.3445L0.923876 15.8068C0.0636448 15.1974 -0.195858 14.391 0.145367 13.3873C0.485158 12.3837 1.17478 11.8819 2.21422 11.8819H11.8381L14.9564 1.55917C15.1356 1.05737 15.4138 0.671698 15.7908 0.402159C16.1665 0.134053 16.5693 0 16.9994 0C17.4296 0 17.8324 0.134053 18.2081 0.402159C18.5851 0.671698 18.8633 1.05737 19.0425 1.55917L22.1608 11.8819H31.7847C32.8241 11.8819 33.5145 12.3837 33.8557 13.3873C34.1955 14.391 33.9353 15.1974 33.075 15.8068L25.2792 21.3445L28.3437 31.2909C28.6305 32.2945 28.3437 33.101 27.4835 33.7103C26.6233 34.3196 25.781 34.3017 24.9566 33.6565L16.9994 27.5812L9.04231 33.6565Z" fill="#34251F"/>
</svg>
